<svg xmlns="http://www.w3.org/2000/svg" viewBox="0 0 113.98 113.98"><defs><style>.cls-1{fill:#1e3261;}.cls-2{fill:#119dd8;}.cls-3{fill:#fff;}</style></defs><g id="Layer_2" data-name="Layer 2"><g id="Capa_3" data-name="Capa 3"><path class="cls-1" d="M9,105c8.73,8.73,29.85,9,48,9s39.23-.29,48-9,9-29.85,9-48-.29-39.24-9-48S75.11,0,57,0,17.75.28,9,9,0,38.87,0,57,.28,96.22,9,105Z"></path><path class="cls-2" d="M57,35.4a11,11,0,1,1-11,11,11,11,0,0,1,11-11"></path><path class="cls-3" d="M57,65.14A18.74,18.74,0,1,1,75.73,46.4,18.74,18.74,0,0,1,57,65.14ZM87.61,16.27c-4.21-1.48-10.93-3.16-28.09-3.16a37.38,37.38,0,0,0-7.66.74,33,33,0,1,0,24,59.54c-1.67,6.49-6.57,14.92-20.69,14.92-13.46,0-20.79-7.64-20.79-7.64L27,88.83a39.39,39.39,0,0,0,28.75,12c20.11,0,34.12-10.54,34.12-32.16v-21c0-.44,0-.88,0-1.32s0-.88,0-1.31V45h0a32.72,32.72,0,0,0-6.09-17.68L83.63,27l5.23-3.8c2.29-1.66,2.42-2.48,2.34-3.76C91.11,17.91,89.31,16.87,87.61,16.27Z"></path></g></g></svg>